# This file uses centimeters as units for non-parametric coordinates.

mtllib eyes.mtl
g default
v -1.509937 2.919075 2.707622
v -1.038787 2.952368 2.772665
v -0.682314 2.639595 2.821876
v -0.649335 2.163977 2.826429
v -0.959168 1.804123 2.783656
v -1.430318 1.770831 2.718613
v -1.786792 2.083603 2.669402
v -1.819771 2.559221 2.664849
v -1.515638 2.844388 3.021262
v -1.107610 2.873219 3.077591
v -0.798896 2.602351 3.120209
v -0.770334 2.190454 3.124152
v -1.038658 1.878811 3.087110
v -1.446686 1.849979 3.030781
v -1.755401 2.120847 2.988163
v -1.783962 2.532745 2.984220
v -1.446022 2.640337 3.261049
v -1.210447 2.656983 3.293571
v -1.032211 2.500597 3.318177
v -1.015721 2.262788 3.320453
v -1.170638 2.082861 3.299067
v -1.406213 2.066215 3.266545
v -1.584449 2.222601 3.241939
v -1.600939 2.460410 3.239663
v -1.319743 2.361599 3.362732
v 1.509937 2.919075 2.707622
v 1.038787 2.952368 2.772665
v 0.682314 2.639595 2.821876
v 0.649335 2.163977 2.826429
v 0.959168 1.804123 2.783656
v 1.430318 1.770831 2.718613
v 1.786792 2.083603 2.669402
v 1.819771 2.559221 2.664849
v 1.515638 2.844388 3.021262
v 1.107610 2.873219 3.077591
v 0.798896 2.602351 3.120209
v 0.770334 2.190454 3.124152
v 1.038658 1.878811 3.087110
v 1.446686 1.849979 3.030781
v 1.755401 2.120847 2.988163
v 1.783962 2.532745 2.984220
v 1.446022 2.640337 3.261049
v 1.210447 2.656983 3.293571
v 1.032211 2.500597 3.318177
v 1.015721 2.262788 3.320453
v 1.170638 2.082861 3.299067
v 1.406213 2.066215 3.266545
v 1.584449 2.222601 3.241939
v 1.600939 2.460410 3.239663
v 1.319743 2.361599 3.362732
vt 0.564840 0.173330
vt 0.622613 0.164492
vt 0.517740 0.138728
vt 0.508902 0.080956
vt 0.543504 0.033856
vt 0.601276 0.025018
vt 0.648376 0.059620
vt 0.657214 0.117392
vt 0.567281 0.163395
vt 0.617313 0.155741
vt 0.526491 0.133429
vt 0.518837 0.083397
vt 0.548803 0.042607
vt 0.598835 0.034953
vt 0.639625 0.064919
vt 0.647279 0.114951
vt 0.573949 0.136252
vt 0.602835 0.131833
vt 0.550399 0.118951
vt 0.545980 0.090065
vt 0.563281 0.066515
vt 0.592167 0.062096
vt 0.615717 0.079397
vt 0.620136 0.108283
vt 0.583058 0.099174
vt 0.622613 0.164492
vt 0.564840 0.173330
vt 0.567281 0.163395
vt 0.617313 0.155741
vt 0.517740 0.138728
vt 0.526491 0.133429
vt 0.508902 0.080956
vt 0.518837 0.083397
vt 0.543504 0.033856
vt 0.548803 0.042607
vt 0.601276 0.025018
vt 0.598835 0.034953
vt 0.648376 0.059620
vt 0.639625 0.064919
vt 0.657214 0.117392
vt 0.647279 0.114951
vt 0.573949 0.136252
vt 0.602835 0.131833
vt 0.550399 0.118951
vt 0.545980 0.090065
vt 0.563281 0.066515
vt 0.592167 0.062096
vt 0.615717 0.079397
vt 0.620136 0.108283
vt 0.583058 0.099174
vn -0.462400 0.864410 0.197438
vn -0.457542 0.805810 0.375932
vn 0.223487 0.853933 0.469950
vn 0.268155 0.916032 0.298293
vn 0.738755 0.401833 0.541083
vn 0.820894 0.431055 0.374599
vn 0.786426 -0.285655 0.547664
vn 0.872031 -0.306428 0.381659
vn 0.338573 -0.805810 0.485837
vn 0.391610 -0.864410 0.315336
vn -0.342456 -0.853933 0.391820
vn -0.338944 -0.916032 0.214482
vn -0.857724 -0.401833 0.320687
vn -0.891683 -0.431055 0.138176
vn -0.905394 0.285655 0.314106
vn -0.942821 0.306428 0.131116
vn -0.386241 0.567948 0.726811
vn 0.093758 0.601864 0.793075
vn 0.456927 0.283218 0.843211
vn 0.490526 -0.201334 0.847850
vn 0.174873 -0.567947 0.804273
vn -0.305126 -0.601865 0.738009
vn -0.668296 -0.283218 0.687872
vn -0.701894 0.201334 0.683234
vn -0.136754 -0.000000 0.990605
vn 0.462400 0.864410 0.197439
vn -0.268155 0.916032 0.298293
vn -0.223487 0.853933 0.469950
vn 0.457542 0.805810 0.375932
vn -0.820894 0.431054 0.374599
vn -0.738755 0.401833 0.541083
vn -0.872031 -0.306428 0.381659
vn -0.786426 -0.285655 0.547664
vn -0.391610 -0.864410 0.315336
vn -0.338573 -0.805810 0.485837
vn 0.338944 -0.916032 0.214482
vn 0.342456 -0.853933 0.391820
vn 0.891683 -0.431055 0.138176
vn 0.857724 -0.401833 0.320687
vn 0.942820 0.306428 0.131116
vn 0.905394 0.285655 0.314106
vn -0.093758 0.601864 0.793075
vn 0.386241 0.567948 0.726811
vn -0.456928 0.283218 0.843211
vn -0.490526 -0.201334 0.847849
vn -0.174873 -0.567947 0.804273
vn 0.305126 -0.601865 0.738009
vn 0.668296 -0.283218 0.687872
vn 0.701894 0.201334 0.683234
vn 0.136754 -0.000000 0.990605
s 1
g KittyA:KittyA:KittyA:KittyA:pSphere5
usemtl lambert3SG
f 1/2/1 9/10/2 10/9/3 2/1/4
f 2/1/4 10/9/3 11/11/5 3/3/6
f 3/3/6 11/11/5 12/12/7 4/4/8
f 4/4/8 12/12/7 13/13/9 5/5/10
f 5/5/10 13/13/9 14/14/11 6/6/12
f 6/6/12 14/14/11 15/15/13 7/7/14
f 7/7/14 15/15/13 16/16/15 8/8/16
f 8/8/16 16/16/15 9/10/2 1/2/1
f 9/10/2 17/18/17 18/17/18 10/9/3
f 10/9/3 18/17/18 19/19/19 11/11/5
f 11/11/5 19/19/19 20/20/20 12/12/7
f 12/12/7 20/20/20 21/21/21 13/13/9
f 13/13/9 21/21/21 22/22/22 14/14/11
f 14/14/11 22/22/22 23/23/23 15/15/13
f 15/15/13 23/23/23 24/24/24 16/16/15
f 16/16/15 24/24/24 17/18/17 9/10/2
f 17/18/17 25/25/25 18/17/18
f 18/17/18 25/25/25 19/19/19
f 19/19/19 25/25/25 20/20/20
f 20/20/20 25/25/25 21/21/21
f 21/21/21 25/25/25 22/22/22
f 22/22/22 25/25/25 23/23/23
f 23/23/23 25/25/25 24/24/24
f 24/24/24 25/25/25 17/18/17
s 2
f 26/26/26 27/27/27 35/28/28 34/29/29
f 27/27/27 28/30/30 36/31/31 35/28/28
f 28/30/30 29/32/32 37/33/33 36/31/31
f 29/32/32 30/34/34 38/35/35 37/33/33
f 30/34/34 31/36/36 39/37/37 38/35/35
f 31/36/36 32/38/38 40/39/39 39/37/37
f 32/38/38 33/40/40 41/41/41 40/39/39
f 33/40/40 26/26/26 34/29/29 41/41/41
f 34/29/29 35/28/28 43/42/42 42/43/43
f 35/28/28 36/31/31 44/44/44 43/42/42
f 36/31/31 37/33/33 45/45/45 44/44/44
f 37/33/33 38/35/35 46/46/46 45/45/45
f 38/35/35 39/37/37 47/47/47 46/46/46
f 39/37/37 40/39/39 48/48/48 47/47/47
f 40/39/39 41/41/41 49/49/49 48/48/48
f 41/41/41 34/29/29 42/43/43 49/49/49
f 42/43/43 43/42/42 50/50/50
f 43/42/42 44/44/44 50/50/50
f 44/44/44 45/45/45 50/50/50
f 45/45/45 46/46/46 50/50/50
f 46/46/46 47/47/47 50/50/50
f 47/47/47 48/48/48 50/50/50
f 48/48/48 49/49/49 50/50/50
f 49/49/49 42/43/43 50/50/50
